<!-- Generated by SVGMaker - https://svgmaker.io -->
<!--  -->
<svg version="1.1" xmlns="http://www.w3.org/2000/svg" style="display: block;" viewBox="0 0 2048 2048" width="1024" height="1024">
<path transform="translate(0,0)" fill="rgb(255,255,255)" d="M 0 0 L 2048 0 L 2048 2048 L 0 2048 L 0 0 z"/>
<path transform="translate(0,0)" fill="rgb(11,48,76)" d="M 1169.42 466.404 C 1215.34 465.221 1261.57 466.384 1307.53 466.337 C 1328.74 466.315 1367.27 463.869 1386.68 467.531 C 1395.19 469.136 1403.54 473.531 1409.82 479.487 C 1421.93 490.974 1424.8 504.56 1425 520.488 C 1425.61 566.993 1425.08 613.576 1425.06 660.087 C 1425.05 686.31 1426.97 715.106 1424.29 741.075 C 1423.28 750.927 1420.57 761.913 1416.35 770.876 C 1406.48 791.826 1359.38 835.235 1341.19 853.896 L 1249.73 947.382 C 1236.78 960.595 1223.32 975.371 1204.93 980.681 C 1186.63 985.963 1165.69 984.139 1146.83 984.143 L 1085.58 984.143 L 880.663 984.3 C 872.958 971.466 864.395 960.528 850.908 953.416 C 836.316 945.646 819.209 944.087 803.454 949.093 C 787.263 954.266 773.801 965.678 766.049 980.804 C 758.629 995.232 757.502 1012.67 762.45 1028.08 C 767.566 1043.82 778.727 1056.88 793.477 1064.39 C 808.498 1072.08 825.989 1073.39 841.988 1068.02 C 861.757 1061.36 872.953 1047.08 881.841 1029.06 C 940.132 1030.57 998.768 1029.28 1057.09 1029.29 C 1112.07 1029.3 1167.41 1030.69 1222.35 1029.23 C 1243.7 1028.67 1262.31 1023.06 1280.15 1011.23 C 1296.48 1000.41 1310.58 984.683 1324.58 971.072 L 1394.88 902.081 L 1464.8 833.038 C 1488 810.504 1511.71 788.217 1533.9 764.696 C 1530.54 749.253 1530.42 732.686 1535.96 717.736 C 1542.64 699.717 1556.58 685.578 1573.97 677.656 C 1593.09 669.096 1614.83 668.538 1634.36 676.106 C 1652.73 683.251 1667.5 697.41 1675.41 715.46 C 1683.53 734.592 1683.59 756.193 1675.57 775.369 C 1668.13 793.933 1653.5 808.7 1635 816.311 C 1613.29 825.058 1592.1 821.938 1571.08 813.108 C 1529.97 853.211 1489.18 893.652 1448.73 934.427 L 1272.61 1108.13 C 1256.31 1124 1237.64 1136.05 1215.51 1142.17 C 1189.23 1149.44 1153.18 1146.31 1125.51 1146.31 C 1095.35 1146.4 1065.18 1146.31 1035.02 1146.03 C 1035.17 1136.53 1035.78 1128.13 1029.37 1120.29 C 1023.47 1113.07 1014.23 1110.42 1005.26 1109.8 C 994.321 1109.04 983.053 1109.86 972.077 1109.87 C 958.943 1109.89 944.444 1108.29 931.551 1110.57 C 926.359 1111.48 921.724 1113.1 917.798 1116.72 C 912.742 1121.38 911.293 1126.32 910.941 1133.02 C 910.244 1146.29 909.286 1204.1 911.621 1213.95 C 912.726 1218.61 915.766 1223.13 919.015 1226.56 C 924.381 1232.23 935.26 1233.69 942.654 1233.95 C 959.303 1234.52 994.992 1235.72 1010.33 1233.15 C 1016.19 1232.17 1021.9 1230.64 1026.21 1226.36 C 1036.04 1216.58 1035.25 1204.72 1035.14 1191.9 L 1168.05 1191.93 C 1192.65 1191.93 1219.45 1194.04 1243.66 1189.98 C 1255.6 1187.94 1266.98 1183.43 1277.07 1176.74 C 1290.72 1167.83 1302.58 1154.84 1314.29 1143.56 C 1336.22 1122.29 1357.98 1100.82 1379.54 1079.16 L 1421.34 1037.84 C 1432.81 1026.52 1444.12 1013.83 1457.7 1005.05 C 1467.34 998.831 1477.63 994.812 1488.91 992.777 C 1506.88 989.536 1526.44 990.944 1544.68 990.998 L 1545.18 989.733 C 1552.93 970.404 1567.12 954.874 1586.52 946.866 C 1605.56 939.048 1626.95 939.206 1645.87 947.306 C 1665.09 955.507 1680.21 971.101 1687.8 990.572 C 1695.77 1011.09 1694 1031.26 1685.21 1051.09 C 1676.76 1066.52 1665.88 1078.96 1649.86 1086.79 C 1631.93 1095.55 1609.65 1096.74 1590.84 1090.11 C 1569.07 1082.43 1554.81 1066.44 1545.07 1046.09 C 1528.75 1046.01 1510.06 1044.19 1495.05 1051.68 C 1478.98 1059.71 1457 1084.95 1443.6 1098.08 L 1313.88 1226.65 C 1293.1 1247.31 1272.75 1270.27 1250.46 1289.18 C 1243.97 1294.69 1236.14 1300.19 1228.13 1303.22 C 1206.22 1311.51 1147.44 1308.04 1121.53 1308.07 C 1114.43 1297.21 1106.8 1288.08 1095.22 1281.8 C 1081.84 1274.51 1066.07 1273 1051.55 1277.63 C 1037.07 1282.13 1025.03 1292.32 1018.19 1305.86 C 1011.17 1319.87 1009.99 1336.09 1014.91 1350.96 C 1019.66 1365.41 1030.04 1377.32 1043.7 1383.98 C 1057.91 1390.8 1074.27 1391.6 1089.08 1386.21 C 1105.54 1380.07 1116.03 1367.53 1123.05 1352.02 L 1238.18 1352.07 C 1256.52 1352.07 1275.7 1353.22 1293.91 1351.58 C 1300.27 1351.01 1306.87 1349.94 1312.56 1346.95 C 1331.31 1337.09 1351.94 1312.61 1367.26 1297.39 L 1429.36 1235.74 C 1425.29 1222.58 1424.52 1209.61 1428.75 1196.39 C 1434.07 1179.8 1445.72 1167.01 1461.21 1159.21 C 1476.8 1151.36 1494.88 1150.1 1511.4 1155.72 C 1528.84 1161.63 1543.16 1174.34 1551.09 1190.96 C 1558.64 1206.62 1559.65 1224.64 1553.9 1241.05 C 1547.94 1258.01 1534.63 1272.03 1518.43 1279.66 C 1501.15 1287.8 1484.56 1287.08 1466.87 1280.68 C 1439.95 1308.06 1412.87 1335.27 1385.63 1362.33 C 1371.22 1376.7 1354.32 1391.11 1342.09 1407.39 C 1337.4 1413.64 1335.09 1419.18 1333.3 1426.7 C 1336.31 1436.14 1341.57 1444 1347.39 1451.9 C 1365.17 1476.04 1371.67 1489.54 1370.98 1520.23 C 1370.87 1524.84 1370.13 1529.1 1366.37 1532.18 C 1363.72 1534.36 1360.14 1534.06 1356.89 1534.16 C 1315.89 1535.34 1274.55 1534.27 1233.52 1534.26 L 995.159 1534.25 L 766.689 1534.26 C 727.491 1534.26 687.918 1535.37 648.754 1534.12 C 643.808 1533.96 636.328 1534.86 632.901 1530.89 C 628.326 1525.58 629.625 1511.88 630.211 1505.19 C 633.194 1471.07 668.485 1446.99 692.578 1426.42 C 697.037 1422.61 704.242 1416.49 704.099 1409.99 C 704.01 1405.93 701.924 1402.99 698.987 1400.4 C 691.341 1393.65 680.603 1388.63 672.208 1382.62 C 656.611 1371.46 641.683 1358.3 627.954 1344.93 C 517.906 1237.72 461.302 1082.18 431.358 934.714 C 426.636 911.457 416.401 869.888 416.28 847.808 C 416.239 840.233 416.978 831.049 422.786 825.562 C 426.923 821.654 430.706 820.351 436.283 819.919 C 460.704 818.024 486.39 819.543 510.928 819.549 L 658.592 819.579 L 1121.83 819.498 L 1121.71 608.57 L 1121.72 544.482 C 1121.73 531.285 1120.97 517.525 1122.76 504.424 C 1123.86 496.358 1127.4 488.963 1132.69 482.775 C 1142.25 471.59 1155.27 467.56 1169.42 466.404 z"/>
<path transform="translate(0,0)" fill="rgb(255,255,255)" d="M 1252.02 564.999 L 1300.37 565.039 C 1300.04 582.716 1300.3 600.439 1300.3 618.121 L 1353.95 618.059 L 1353.99 666.065 L 1300.28 666.034 L 1300.29 720.427 L 1252.04 720.405 L 1252.09 666.054 L 1199.23 666.059 C 1199.43 650.075 1199.46 634.09 1199.33 618.106 L 1252.12 618.06 L 1252.02 564.999 z"/>
<path transform="translate(0,0)" fill="rgb(255,255,255)" d="M 1609.51 988.48 C 1620.08 985.986 1631.18 989.376 1638.55 997.354 C 1645.93 1005.33 1648.44 1016.66 1645.12 1027.01 C 1641.8 1037.35 1633.18 1045.11 1622.54 1047.32 C 1606.4 1050.66 1590.57 1040.42 1587 1024.33 C 1583.44 1008.23 1593.46 992.264 1609.51 988.48 z"/>
<path transform="translate(0,0)" fill="rgb(255,255,255)" d="M 1604.08 716.664 C 1620.17 715.412 1634.29 727.319 1635.76 743.392 C 1637.24 759.466 1625.53 773.745 1609.48 775.445 C 1598.89 776.566 1588.53 771.902 1582.34 763.238 C 1576.16 754.575 1575.12 743.254 1579.62 733.609 C 1584.12 723.964 1593.47 717.49 1604.08 716.664 z"/>
<path transform="translate(0,0)" fill="rgb(255,255,255)" d="M 1485.14 1198.63 C 1496.47 1195.38 1508.31 1201.85 1511.69 1213.14 C 1515.06 1224.44 1508.72 1236.35 1497.46 1239.84 C 1490.07 1242.14 1482.01 1240.29 1476.37 1235 C 1470.72 1229.7 1468.35 1221.78 1470.17 1214.26 C 1471.98 1206.73 1477.7 1200.76 1485.14 1198.63 z"/>
<path transform="translate(0,0)" fill="rgb(203,164,63)" d="M 476.903 379.399 C 479.264 379.109 481.657 379.329 484.022 379.516 C 498.58 380.662 512.298 387.057 521.671 398.453 C 530.678 409.53 534.977 423.698 533.644 437.912 C 531.887 455.412 522.324 467.202 509.35 477.953 C 554.265 523.383 601.347 567.171 647.441 611.416 L 828.883 786.092 C 810.82 784.104 791.512 785.358 773.314 785.358 L 671.5 785.361 L 567.945 785.561 C 548.668 764.934 531.958 740.068 514.556 717.718 L 408.105 581.062 C 398.209 590.228 387.274 596.76 373.556 598.231 C 359.388 599.75 343.177 595.507 332.132 586.423 C 321.348 577.553 314.764 564.306 313.437 550.478 C 312.291 538.53 315.234 522.77 323.157 513.215 C 331.433 503.233 341.223 494.214 350.386 485.044 L 396.148 439.305 C 409.679 425.791 433.718 398.708 448.207 388.519 C 456.944 382.376 466.549 380.398 476.903 379.399 z"/>
<path transform="translate(0,0)" fill="rgb(11,48,76)" d="M 943.989 1144.02 L 1000.09 1143.98 L 1000.19 1198.92 C 981.47 1198.67 962.751 1198.59 944.032 1198.68 L 943.989 1144.02 z"/>
<path transform="translate(0,0)" fill="rgb(11,48,76)" d="M 817.702 980.652 C 833.198 978.307 847.676 988.927 850.093 1004.41 C 852.51 1019.9 841.957 1034.42 826.483 1036.91 C 810.908 1039.42 796.265 1028.78 793.832 1013.19 C 791.399 997.606 802.104 983.013 817.702 980.652 z"/>
<path transform="translate(0,0)" fill="rgb(11,48,76)" d="M 1062.3 1308.43 C 1075.56 1304.98 1089.1 1312.98 1092.49 1326.26 C 1095.88 1339.54 1087.82 1353.05 1074.52 1356.37 C 1061.31 1359.67 1047.91 1351.68 1044.55 1338.48 C 1041.19 1325.29 1049.12 1311.86 1062.3 1308.43 z"/>
</svg>